<svg width="24" height="24" viewBox="0 0 24 24" fill="none" xmlns="http://www.w3.org/2000/svg">
<path d="M16.668 3.15403C15.2361 2.39907 13.6245 2 12.0068 2H11.9953C6.48424 2 2.00001 6.48487 2.00001 11.9978C1.99825 13.6029 2.39014 15.2035 3.129 16.6183L3.32186 16.9927C3.3791 17.1011 3.39143 17.2306 3.37117 17.3019C3.09113 18.034 2.85952 18.7899 2.68163 19.5475C2.67018 19.5959 2.66402 19.6461 2.66225 19.6946C2.64905 20.1192 2.76177 20.4566 2.99866 20.6971C3.15277 20.8539 3.43282 21.0398 3.89251 21.0398C3.94975 21.0415 4.01228 21.0336 4.0704 21.0213C4.75554 20.868 5.77004 20.4989 6.51154 20.2302L6.71233 20.1571C7.10069 20.017 7.30236 19.5871 7.16146 19.1986C7.02055 18.8092 6.58816 18.6057 6.20332 18.7493L5.99989 18.8224C5.50409 19.003 4.81807 19.2523 4.25622 19.4215C4.40064 18.8841 4.57589 18.3441 4.78636 17.7891C4.93872 17.294 4.88676 16.747 4.65163 16.3065L4.45965 15.9312C3.82823 14.7234 3.49534 13.3641 3.4971 11.9987C3.4971 7.31119 7.31028 3.4976 11.9962 3.4976H12.0059C13.3823 3.4976 14.7526 3.83676 15.9696 4.47897C20.1148 6.66546 21.7088 11.8181 19.523 15.9638C17.7415 19.3431 13.8966 21.1305 10.1724 20.3024C9.7664 20.2152 9.36747 20.468 9.27852 20.8715C9.18958 21.275 9.44408 21.6749 9.84742 21.7648C10.5634 21.9234 11.2829 22 11.9953 22C15.642 22 19.0942 19.9879 20.8475 16.6624C23.4181 11.7855 21.5432 5.72638 16.668 3.15403Z" fill="url(#paint0_linear_2_192)"/>
<defs>
<linearGradient id="paint0_linear_2_192" x1="2" y1="2" x2="22.7512" y2="2.81239" gradientUnits="userSpaceOnUse">
<stop stop-color="#36D1DC"/>
<stop offset="1" stop-color="#5B86E5"/>
</linearGradient>
</defs>
</svg>
