<svg width="24" height="24" viewBox="0 0 24 24" fill="none" xmlns="http://www.w3.org/2000/svg">
<path fill-rule="evenodd" clip-rule="evenodd" d="M12.3113 17.4506C11.7732 17.4497 11.3323 17.0198 11.3195 16.4808L11.3185 16.4121L11.3176 7.64959C11.3341 7.09776 11.7705 6.65042 12.3214 6.622C12.8631 6.61559 13.3068 7.04826 13.3132 7.59001C13.3141 7.59459 13.3141 7.59826 13.3141 7.60376L13.3132 11.0239L16.4253 11.0229C16.9716 11.0358 17.4098 11.4794 17.4162 12.0267C17.4162 12.1257 17.4025 12.2238 17.3722 12.3182C17.2549 12.7527 16.8626 13.0534 16.4125 13.0543L13.315 13.0534L13.3141 16.424C13.3297 16.9767 12.8925 17.436 12.3397 17.4497C12.3345 17.4508 12.3293 17.4506 12.3239 17.4505C12.3198 17.4504 12.3156 17.4502 12.3113 17.4506ZM7.6932 11.0471L8.9472 11.0471C9.49537 11.0654 9.92254 11.5256 9.90512 12.0728C9.88496 12.621 9.4257 13.0491 8.87845 13.0298L7.62995 13.0298C7.09553 13.0124 6.67202 12.5742 6.67202 12.0389L6.66652 12.0041C6.69127 11.4586 7.14778 11.0333 7.6932 11.0471Z" fill="#3CC6DE"/>
</svg>
