<svg width="75" height="75" viewBox="0 0 75 75" fill="none" xmlns="http://www.w3.org/2000/svg">
<circle cx="37.5" cy="37.5" r="37.5" fill="white"/>
<path fill-rule="evenodd" clip-rule="evenodd" d="M36.108 44.33L38.278 44.404C42.834 44.11 40.54 43.256 44.296 46.556C45.238 47.384 46.046 48.508 47.024 49.142C46.472 49.61 42.386 51.066 41.546 51.178L36.108 44.33ZM17.154 39.46C17.982 39.006 20.6 38.328 21.738 37.922C23.244 37.386 24.77 36.846 26.244 36.212C27.126 36.73 30.012 39.988 30.51 41.008C26.348 41.296 20.638 41.04 17.154 39.46ZM28.2 35.4C32.296 33.024 35.944 31.756 39.894 27.882C40.83 26.964 40.936 26.244 41.844 26.048C46.08 25.126 50.92 27.334 48.004 33.068C45.448 38.09 38.372 40.436 32.736 40.74C32.44 40.304 32.036 39.896 31.582 39.326L28.2 35.4ZM12.836 22.658C17.54 22.698 16.472 23.6 17.338 20.292C19.262 21.22 27.666 27.002 29.764 28.422C32.478 30.26 33.954 27.484 39.052 26.578C37.392 29.178 31.298 32.91 27.276 34.4C26.848 34.112 19.87 27.528 16.752 25.274L12.836 22.658ZM42.202 24.892C44.74 18.97 48.1 16.444 54.036 18.244L58.814 19.708C58.836 19.67 58.9 19.748 58.94 19.776C52.274 24.292 55.696 30.96 51.196 37.122C47.194 42.6 37.634 44.978 34.316 42.086C33.838 41.67 34.192 42.002 33.95 41.664C39.928 41.116 44.5 39.222 48.422 35.208C49.842 33.756 51.658 30.216 50.236 27.382C48.958 24.842 45.73 24.65 42.202 24.892ZM43.608 43.672C44.354 42.966 48.604 42.48 52.452 37.864C55.048 34.75 55.386 31.946 56.306 27.27C58.038 18.47 61.968 20.41 62.834 19.15C63.538 18.126 61.126 18.65 60.278 18.57C57.286 18.292 54.314 16.382 51.516 16.382C46.61 16.382 44.012 18.638 41.746 22.516C39.718 25.982 40.872 24.858 37.53 25.866C36.666 26.126 32.432 27.756 32.092 27.738C31.626 27.712 24.108 22.668 22.984 21.964C15.162 17.064 16.304 16.916 15.198 21.582C12.896 21.478 9.622 20.694 8 21.732C8.222 22.426 7.722 21.896 8.502 22.354C8.6 22.412 9.08 22.58 9.242 22.644C11.816 23.684 15.464 26.262 17.38 27.914L23.504 33.308C24.128 33.858 24.776 34.636 25.32 35.184C23.54 36.254 17.764 38.072 15.24 38.812C14.474 39.036 14.404 38.988 14.14 39.676C14.472 40.034 14.786 40.136 15.282 40.324C21.172 42.566 25.644 42.34 31.638 42.008C32.274 43.136 39.434 50.688 40.078 51.71L23.396 57.974C22.01 58.474 21.56 58.452 21.44 59.308C21.942 59.58 22.066 59.618 22.806 59.618C24.064 59.618 32.16 56.424 33.906 55.762L63.674 44.786C64.824 44.364 65.704 44.244 66 43.458C64.782 41.982 59.334 44.718 56.42 45.784C55.016 46.298 53.792 46.738 52.402 47.268C51.466 47.624 49.156 48.586 48.186 48.68C47.576 47.768 44.666 44.702 43.608 43.672Z" fill="url(#paint0_linear_456_323)"/>
<path fill-rule="evenodd" clip-rule="evenodd" d="M50.044 20.4199C49.538 20.6959 48.954 21.1419 49.434 22.1519C49.676 22.6599 50.426 23.0719 51.21 22.7079C52.684 22.0259 51.622 19.5659 50.044 20.4199Z" fill="url(#paint1_linear_456_323)"/>
<defs>
<linearGradient id="paint0_linear_456_323" x1="8" y1="16.382" x2="68.1049" y2="19.5385" gradientUnits="userSpaceOnUse">
<stop stop-color="#36D1DC"/>
<stop offset="1" stop-color="#5B86E5"/>
</linearGradient>
<linearGradient id="paint1_linear_456_323" x1="49.2553" y1="20.2419" x2="52.0132" y2="20.3521" gradientUnits="userSpaceOnUse">
<stop stop-color="#36D1DC"/>
<stop offset="1" stop-color="#5B86E5"/>
</linearGradient>
</defs>
</svg>
